:FULLY-SPECIFIED
:FORCE-ALL-JOINTS-BE-3DOF
:DEGREES
1121
root 1.33957 14.6954 -29.1331 364.511 -4.0391 364.33
lfemur -38.4041 9.66465 -29.5273
ltibia 73.2412 0 0
lfoot -24.4499 30.1241 0
ltoes -12.619 0 0
rfemur -51.6527 -12.2949 17.3735
rtibia 107.411 0 0
rfoot -6.68897 -2.46774 0
rtoes -11.3733 0 0
lowerback 14.8982 0.67171 -10.9777
upperback -0.961101 -0.852898 1.3033
thorax -9.31718 0.181395 7.90024
lowerneck -6.07037 0.319431 -2.27718
upperneck 2.37631 0.346946 2.49899
head 1.9413 0.201086 1.09068
lclavicle -7.96658e-14 -2.11594e-14 0
lhumerus 61.5936 -11.4567 51.6906
lradius 83.6922 0 0
lwrist 35.5576 0 0
lhand -32.5398 35.2487 0
lfingers 7.12502 0 0
lthumb -5.77027 65.0012 0
rclavicle -7.96658e-14 -2.11594e-14 0
rhumerus -33.0981 18.7385 -91.3948
rradius 83.7604 0 0
rwrist -38.9828 0 0
rhand -22.9045 -52.3207 0
rfingers 7.12502 0 0
rthumb 3.5375 -82.2207 0
1122
root 1.32979 14.7024 -28.9803 364.283 -3.31612 364.534
lfemur -37.4517 9.36592 -29.5313
ltibia 72.8918 0 0
lfoot -24.6268 30.449 0
ltoes -12.5432 0 0
rfemur -52.1375 -12.3261 17.2397
rtibia 107.248 0 0
rfoot -6.37592 -2.08927 0
rtoes -11.0231 0 0
lowerback 14.894 0.727245 -11.1241
upperback -0.939195 -0.805574 1.20878
thorax -9.29994 0.20714 7.87086
lowerneck -5.99514 0.0567638 -2.50134
upperneck 2.42832 -0.0128546 2.67492
head 1.97313 0.0222953 1.16051
lclavicle -7.89123e-14 -2.14377e-14 0
lhumerus 59.3816 -11.6056 52.6787
lradius 84.0367 0 0
lwrist 36.0247 0 0
lhand -32.165 34.8388 0
lfingers 7.12502 0 0
lthumb -5.40859 64.5843 0
rclavicle -7.89123e-14 -2.14377e-14 0
rhumerus -31.1905 18.2618 -90.45
rradius 83.6166 0 0
rwrist -37.8681 0 0
rhand -23.2963 -52.4061 0
rfingers 7.12502 0 0
rthumb 3.1593 -82.3061 0
1123
root 1.31803 14.7085 -28.8223 364.047 -2.56431 364.732
lfemur -36.4615 9.0712 -29.5079
ltibia 72.5269 0 0
lfoot -24.8071 30.7687 0
ltoes -12.4739 0 0
rfemur -52.5937 -12.3567 17.0846
rtibia 106.998 0 0
rfoot -6.05572 -1.7099 0
rtoes -10.6716 0 0
lowerback 14.8862 0.785997 -11.265
upperback -0.916382 -0.752931 1.11318
thorax -9.28047 0.234996 7.8359
lowerneck -5.91334 -0.217654 -2.73692
upperneck 2.48837 -0.389117 2.86088
head 2.00868 -0.164669 1.23426
lclavicle -7.79369e-14 -2.16386e-14 0
lhumerus 57.0254 -11.7511 53.7247
lradius 84.4098 0 0
lwrist 36.5034 0 0
lhand -31.7647 34.3963 0
lfingers 7.12502 0 0
lthumb -5.02221 64.1344 0
rclavicle -7.79369e-14 -2.16386e-14 0
rhumerus -29.1852 17.753 -89.4373
rradius 83.4912 0 0
rwrist -36.6983 0 0
rhand -23.7034 -52.4693 0
rfingers 7.12502 0 0
rthumb 2.76648 -82.3686 0
1124
root 1.30421 14.7137 -28.6588 363.804 -1.78324 364.922
lfemur -35.4331 8.78111 -29.4557
ltibia 72.146 0 0
lfoot -24.9907 31.0823 0
ltoes -12.4114 0 0
rfemur -53.0192 -12.3869 16.9076
rtibia 106.655 0 0
rfoot -5.72866 -1.33019 0
rtoes -10.3195 0 0
lowerback 14.8744 0.848041 -11.3999
upperback -0.892663 -0.694779 1.01659
thorax -9.2587 0.265029 7.79513
lowerneck -5.82475 -0.504034 -2.98416
upperneck 2.55673 -0.782147 3.05712
head 2.04805 -0.359959 1.31203
lclavicle -7.673e-14 -2.17579e-14 0
lhumerus 54.5208 -11.893 54.8302
lradius 84.8124 0 0
lwrist 36.9936 0 0
lhand -31.338 33.9205 0
lfingers 7.12502 0 0
lthumb -4.61045 63.6508 0
rclavicle -7.673e-14 -2.17579e-14 0
rhumerus -27.08 17.211 -88.3546
rradius 83.3855 0 0
rwrist -35.4726 0 0
rhand -24.1256 -52.5087 0
rfingers 7.12502 0 0
rthumb 2.35888 -82.4068 0
1125
root 1.28824 14.7179 -28.49 363.554 -0.972472 365.103
lfemur -34.3658 8.49631 -29.3733
ltibia 71.7484 0 0
lfoot -25.1773 31.3889 0
ltoes -12.3565 0 0
rfemur -53.4119 -12.4165 16.7077
rtibia 106.216 0 0
rfoot -5.39505 -0.950742 0
rtoes -9.96733 0 0
lowerback 14.8587 0.913451 -11.5282
upperback -0.868043 -0.630926 0.919101
thorax -9.23458 0.297305 7.74831
lowerneck -5.72913 -0.80259 -3.24331
upperneck 2.63369 -1.19225 3.26388
head 2.09139 -0.563728 1.3939
lclavicle -7.52819e-14 -2.17918e-14 0
lhumerus 51.8636 -12.0308 55.9964
lradius 85.2455 0 0
lwrist 37.4955 0 0
lhand -30.8844 33.4108 0
lfingers 7.12502 0 0
lthumb -4.17263 63.1328 0
rclavicle -7.52819e-14 -2.17918e-14 0
rhumerus -24.8728 16.635 -87.1999
rradius 83.3007 0 0
rwrist -34.1898 0 0
rhand -24.5634 -52.5231 0
rfingers 7.12502 0 0
rthumb 1.93637 -82.4192 0
1126
root 1.27001 14.7211 -28.3156 363.296 -0.131583 365.276
lfemur -33.259 8.21742 -29.259
ltibia 71.3339 0 0
lfoot -25.3667 31.6879 0
ltoes -12.3097 0 0
rfemur -53.7697 -12.4457 16.4842
rtibia 105.678 0 0
rfoot -5.05516 -0.572127 0
rtoes -9.61553 0 0
lowerback 14.8387 0.982303 -11.6494
upperback -0.842525 -0.561182 0.82081
thorax -9.20807 0.331889 7.69519
lowerneck -5.62624 -1.11354 -3.51459
upperneck 2.71952 -1.61974 3.48143
head 2.1388 -0.776129 1.47997
lclavicle -7.35827e-14 -2.17361e-14 0
lhumerus 49.0499 -12.1642 57.225
lradius 85.7101 0 0
lwrist 38.0092 0 0
lhand -30.403 32.8666 0
lfingers 7.12502 0 0
lthumb -3.70808 62.5798 0
rclavicle -7.35827e-14 -2.17361e-14 0
rhumerus -22.5614 16.0241 -85.9709
rradius 83.2378 0 0
rwrist -32.849 0 0
rhand -25.0167 -52.511 0
rfingers 7.12502 0 0
rthumb 1.4988 -82.4044 0
1127
root 1.24944 14.7231 -28.1357 363.031 0.73986 365.439
lfemur -32.1122 7.9451 -29.1116
ltibia 70.9018 0 0
lfoot -25.5587 31.9784 0
ltoes -12.2716 0 0
rfemur -54.0904 -12.4743 16.2362
rtibia 105.035 0 0
rfoot -4.7093 -0.194929 0
rtoes -9.2647 0 0
lowerback 14.8145 1.05467 -11.763
upperback -0.816111 -0.485358 0.721809
thorax -9.17912 0.368847 7.63552
lowerneck -5.51585 -1.43708 -3.79827
upperneck 2.81449 -2.06492 3.71001
head 2.19042 -0.997315 1.57035
lclavicle -7.16229e-14 -2.15869e-14 0
lhumerus 46.0755 -12.2929 58.5173
lradius 86.207 0 0
lwrist 38.5346 0 0
lhand -29.8933 32.2871 0
lfingers 7.12502 0 0
lthumb -3.21611 61.9911 0
rclavicle -7.16229e-14 -2.15869e-14 0
rhumerus -20.1439 15.3773 -84.6656
rradius 83.1982 0 0
rwrist -31.4489 0 0
rhand -25.4858 -52.471 0
rfingers 7.12502 0 0
rthumb 1.04601 -82.3611 0
1128
root 1.22645 14.7241 -27.9501 362.759 1.64229 365.592
lfemur -30.9248 7.67998 -28.9294
ltibia 70.4516 0 0
lfoot -25.7531 32.2597 0
ltoes -12.2429 0 0
rfemur -54.3721 -12.5026 15.963
rtibia 104.283 0 0
rfoot -4.35775 0.180271 0
rtoes -8.91538 0 0
lowerback 14.7858 1.13063 -11.8686
upperback -0.788805 -0.403263 0.622189
thorax -9.14766 0.408245 7.56907
lowerneck -5.39773 -1.77344 -4.09457
upperneck 2.9189 -2.5281 3.94987
head 2.24637 -1.22744 1.66513
lclavicle -6.93926e-14 -2.13401e-14 0
lhumerus 42.9363 -12.4165 59.8747
lradius 86.7371 0 0
lwrist 39.072 0 0
lhand -29.3545 31.6716 0
lfingers 7.12502 0 0
lthumb -2.69605 61.366 0
rclavicle -6.93926e-14 -2.13401e-14 0
rhumerus -17.618 14.6937 -83.282
rradius 83.1829 0 0
rwrist -29.9887 0 0
rhand -25.9708 -52.4018 0
rfingers 7.12502 0 0
rthumb 0.577856 -82.2878 0
1129
root 1.20093 14.7238 -27.7588 362.48 2.57614 365.734
lfemur -29.6962 7.4227 -28.711
ltibia 69.983 0 0
lfoot -25.9498 32.5309 0
ltoes -12.2239 0 0
rfemur -54.6125 -12.5304 15.6637
rtibia 103.419 0 0
rfoot -4.00082 0.552891 0
rtoes -8.56811 0 0
lowerback 14.7525 1.21026 -11.9654
upperback -0.760611 -0.314706 0.522043
thorax -9.11364 0.450148 7.49559
lowerneck -5.27163 -2.12283 -4.40374
upperneck 3.033 -3.00958 4.20128
head 2.30678 -1.46665 1.76441
lclavicle -6.68822e-14 -2.09916e-14 0
lhumerus 39.6281 -12.5346 61.2987
lradius 87.3015 0 0
lwrist 39.6214 0 0
lhand -28.7858 31.0196 0
lfingers 7.12502 0 0
lthumb -2.14722 60.7038 0
rclavicle -6.68822e-14 -2.09916e-14 0
rhumerus -14.9817 13.9724 -81.818
rradius 83.1931 0 0
rwrist -28.4673 0 0
rhand -26.4719 -52.302 0
rfingers 7.12502 0 0
rthumb 0.0941932 -82.183 0
1130
root 1.1728 14.7223 -27.5617 362.193 3.54183 365.865
lfemur -28.4259 7.1739 -28.4549
ltibia 69.4953 0 0
lfoot -26.1483 32.7913 0
ltoes -12.2155 0 0
rfemur -54.8095 -12.5577 15.3374
rtibia 102.439 0 0
rfoot -3.63878 0.92235 0
rtoes -8.22345 0 0
lowerback 14.7145 1.29363 -12.0532
upperback -0.73153 -0.219497 0.421464
thorax -9.07703 0.494622 7.41483
lowerneck -5.13733 -2.48546 -4.72602
upperneck 3.15709 -3.50968 4.46448
head 2.37176 -1.71511 1.86828
lclavicle -6.4082e-14 -2.05375e-14 0
lhumerus 36.147 -12.647 62.7908
lradius 87.901 0 0
lwrist 40.1828 0 0
lhand -28.1866 30.3303 0
lfingers 7.12502 0 0
lthumb -1.56895 60.0038 0
rclavicle -6.4082e-14 -2.05375e-14 0
rhumerus -12.2328 13.2125 -80.2714
rradius 83.2299 0 0
rwrist -26.8835 0 0
rhand -26.9891 -52.1702 0
rfingers 7.12502 0 0
rthumb -0.405129 -82.0454 0
1131
root 1.14196 14.7195 -27.3588 361.9 4.5398 365.983
lfemur -27.1133 6.93422 -28.1597
ltibia 68.988 0 0
lfoot -26.3487 33.0401 0
ltoes -12.2181 0 0
rfemur -54.9611 -12.5847 14.9835
rtibia 101.338 0 0
rfoot -3.27194 1.28807 0
rtoes -7.88194 0 0
lowerback 14.6715 1.38081 -12.1313
upperback -0.701567 -0.117445 0.320544
thorax -9.03775 0.541732 7.32657
lowerneck -4.9946 -2.86154 -5.06166
upperneck 3.29144 -4.02869 4.73972
head 2.44144 -1.97297 1.97685
lclavicle -6.09821e-14 -1.99738e-14 0
lhumerus 32.4888 -12.7532 64.3523
lradius 88.5366 0 0
lwrist 40.7564 0 0
lhand -27.5563 29.603 0
lfingers 7.12502 0 0
lthumb -0.960552 59.2654 0
rclavicle -6.09821e-14 -1.99738e-14 0
rhumerus -9.36923 12.413 -78.6401
rradius 83.2946 0 0
rwrist -25.2364 0 0
rhand -27.5227 -52.0049 0
rfingers 7.12502 0 0
rthumb -0.920258 -81.8736 0
1132
root 1.10833 14.7153 -27.1501 361.599 5.57049 366.089
lfemur -25.7578 6.7043 -27.8238
ltibia 68.4608 0 0
lfoot -26.5506 33.2765 0
ltoes -12.2323 0 0
rfemur -55.0652 -12.6113 14.601
rtibia 100.112 0 0
rfoot -2.90059 1.64946 0
rtoes -7.54412 0 0
lowerback 14.6235 1.47189 -12.1991
upperback -0.670724 -0.00836062 0.219375
thorax -8.99577 0.591544 7.23054
lowerneck -4.84318 -3.25129 -5.4109
upperneck 3.43633 -4.56693 5.02727
head 2.51595 -2.24037 2.09021
lclavicle -5.7573e-14 -1.92963e-14 0
lhumerus 28.6494 -12.853 65.9848
lradius 89.2091 0 0
lwrist 41.3421 0 0
lhand -26.894 28.8371 0
lfingers 7.12502 0 0
lthumb -0.32135 58.4879 0
rclavicle -5.7573e-14 -1.92963e-14 0
rhumerus -6.38891 11.5731 -76.9221
rradius 83.3883 0 0
rwrist -23.525 0 0
rhand -28.0729 -51.8048 0
rfingers 7.12502 0 0
rthumb -1.45134 -81.666 0
